<svg width="23" height="253" viewBox="0 0 23 253" fill="none" xmlns="http://www.w3.org/2000/svg">
<path d="M15.416 125.928L17 125.928L17 133.72L5.64 133.72L5.64 126.072L7.224 126.072L7.224 131.928L10.456 131.928L10.456 126.856L11.944 126.856L11.944 131.928L15.416 131.928L15.416 125.928ZM8.632 123.071L11.496 121.087L11.768 120.943L11.496 120.799L8.632 118.831L8.632 116.927L12.824 119.935L17 116.895L17 118.799L14.152 120.799L13.896 120.943L14.152 121.087L17 123.087L17 124.991L12.84 121.951L8.632 124.959L8.632 123.071ZM17.16 110.712C17.16 111.384 17 111.976 16.68 112.488C16.36 113 15.944 113.405 15.432 113.704L20.408 113.704L20.408 115.464L8.632 115.464L8.632 113.912L10.136 113.912C9.63467 113.592 9.23467 113.176 8.936 112.664C8.63733 112.152 8.488 111.581 8.488 110.952C8.488 110.376 8.60533 109.848 8.84 109.368C9.064 108.888 9.37867 108.472 9.784 108.12C10.1893 107.768 10.6533 107.496 11.176 107.304C11.688 107.101 12.232 107 12.808 107C13.608 107 14.3387 107.16 15 107.48C15.6613 107.789 16.1893 108.227 16.584 108.792C16.968 109.347 17.16 109.987 17.16 110.712ZM15.656 111.288C15.656 110.915 15.576 110.579 15.416 110.28C15.256 109.971 15.0427 109.709 14.776 109.496C14.5093 109.272 14.2053 109.101 13.864 108.984C13.5227 108.867 13.1707 108.808 12.808 108.808C12.424 108.808 12.0613 108.872 11.72 109C11.3787 109.128 11.08 109.315 10.824 109.56C10.568 109.795 10.3653 110.072 10.216 110.392C10.0667 110.701 9.992 111.043 9.992 111.416C9.992 111.64 10.0347 111.875 10.12 112.12C10.2053 112.365 10.3227 112.595 10.472 112.808C10.6213 113.021 10.7973 113.208 11 113.368C11.2027 113.528 11.416 113.64 11.64 113.704L13.832 113.704C14.1733 113.555 14.4827 113.357 14.76 113.112C15.0267 112.867 15.2453 112.584 15.416 112.264C15.576 111.944 15.656 111.619 15.656 111.288ZM17.16 101.385C17.16 102.036 17.048 102.628 16.824 103.161C16.5893 103.684 16.2747 104.137 15.88 104.521C15.4747 104.905 15.016 105.204 14.504 105.417C13.9813 105.62 13.4267 105.721 12.84 105.721C12.0507 105.721 11.3307 105.54 10.68 105.177C10.0187 104.814 9.49067 104.308 9.096 103.657C8.69067 103.006 8.488 102.244 8.488 101.369C8.488 100.494 8.69066 99.7425 9.096 99.1131C9.49066 98.4731 10.0133 97.9771 10.664 97.6251C11.3147 97.2731 12.0133 97.0971 12.76 97.0971C12.888 97.0971 13.0107 97.1025 13.128 97.1131C13.2347 97.1238 13.3253 97.1345 13.4 97.1451L13.4 103.849C13.8907 103.817 14.3227 103.684 14.696 103.449C15.0587 103.204 15.3467 102.894 15.56 102.521C15.7627 102.148 15.864 101.748 15.864 101.321C15.864 100.852 15.7467 100.409 15.512 99.9931C15.2773 99.5665 14.968 99.2785 14.584 99.1291L15.016 97.6251C15.4213 97.8065 15.7893 98.0838 16.12 98.4571C16.44 98.8198 16.696 99.2518 16.888 99.7531C17.0693 100.254 17.16 100.798 17.16 101.385ZM12.232 103.897L12.232 98.8411C11.752 98.8731 11.3307 99.0118 10.968 99.2571C10.5947 99.4918 10.3067 99.7958 10.104 100.169C9.89066 100.532 9.784 100.937 9.784 101.385C9.784 101.822 9.89066 102.228 10.104 102.601C10.3067 102.964 10.5947 103.262 10.968 103.497C11.3307 103.732 11.752 103.865 12.232 103.897ZM10.152 90.7175C10.1627 91.4002 10.3173 92.0082 10.616 92.5415C10.9147 93.0642 11.336 93.4375 11.88 93.6615L17 93.6615L17 95.4215L8.632 95.4215L8.632 93.7895L10.504 93.7895C9.928 93.5015 9.46933 93.1228 9.128 92.6535C8.776 92.1842 8.584 91.6882 8.552 91.1655C8.552 91.0588 8.552 90.9735 8.552 90.9095C8.552 90.8348 8.55733 90.7708 8.568 90.7175L10.152 90.7175ZM17 89.1971L8.632 89.1971L8.632 87.4371L17 87.4371L17 89.1971ZM7.256 89.1971L5.32 89.1971L5.32 87.4371L7.256 87.4371L7.256 89.1971ZM17.16 81.2901C17.16 81.9408 17.048 82.5328 16.824 83.0661C16.5893 83.5888 16.2747 84.0421 15.88 84.4261C15.4747 84.8101 15.016 85.1088 14.504 85.3221C13.9813 85.5248 13.4267 85.6261 12.84 85.6261C12.0507 85.6261 11.3307 85.4448 10.68 85.0821C10.0187 84.7195 9.49066 84.2128 9.096 83.5621C8.69066 82.9115 8.488 82.1488 8.488 81.2741C8.488 80.3995 8.69066 79.6475 9.096 79.0181C9.49066 78.3781 10.0133 77.8821 10.664 77.5301C11.3147 77.1781 12.0133 77.0021 12.76 77.0021C12.888 77.0021 13.0107 77.0075 13.128 77.0181C13.2347 77.0288 13.3253 77.0395 13.4 77.0501L13.4 83.7541C13.8907 83.7221 14.3227 83.5888 14.696 83.3541C15.0587 83.1088 15.3467 82.7995 15.56 82.4261C15.7627 82.0528 15.864 81.6528 15.864 81.2261C15.864 80.7568 15.7467 80.3141 15.512 79.8981C15.2773 79.4715 14.968 79.1835 14.584 79.0341L15.016 77.5301C15.4213 77.7115 15.7893 77.9888 16.12 78.3621C16.44 78.7248 16.696 79.1568 16.888 79.6581C17.0693 80.1595 17.16 80.7035 17.16 81.2901ZM12.232 83.8021L12.232 78.7461C11.752 78.7781 11.3307 78.9168 10.968 79.1621C10.5947 79.3968 10.3067 79.7008 10.104 80.0741C9.89066 80.4368 9.784 80.8421 9.784 81.2901C9.784 81.7275 9.89066 82.1328 10.104 82.5061C10.3067 82.8688 10.5947 83.1675 10.968 83.4021C11.3307 83.6368 11.752 83.7701 12.232 83.8021ZM17 67.8225L17 69.5825L12.312 69.5825C11.5333 69.5825 10.9627 69.7105 10.6 69.9665C10.2373 70.2118 10.056 70.5798 10.056 71.0705C10.056 71.4118 10.1413 71.7532 10.312 72.0945C10.4827 72.4252 10.7173 72.7238 11.016 72.9905C11.304 73.2572 11.64 73.4492 12.024 73.5665L17 73.5665L17 75.3265L8.632 75.3265L8.632 73.7265L10.312 73.7265C9.93866 73.5132 9.61866 73.2358 9.352 72.8945C9.07466 72.5425 8.86133 72.1478 8.712 71.7105C8.56266 71.2732 8.488 70.8092 8.488 70.3185C8.488 69.8172 8.57866 69.4065 8.76 69.0865C8.94133 68.7558 9.192 68.4998 9.512 68.3185C9.82133 68.1265 10.184 67.9985 10.6 67.9345C11.0053 67.8598 11.4373 67.8225 11.896 67.8225L17 67.8225ZM17.16 61.7476C17.16 62.3983 17.048 62.9903 16.824 63.5236C16.5893 64.0463 16.2693 64.4996 15.864 64.8836C15.4587 65.2676 14.9947 65.5663 14.472 65.7796C13.9493 65.9823 13.3947 66.0836 12.808 66.0836C12.0187 66.0836 11.2987 65.9076 10.648 65.5556C9.99733 65.193 9.47466 64.6916 9.08 64.0516C8.68533 63.401 8.488 62.633 8.488 61.7476C8.488 60.8943 8.68 60.153 9.064 59.5236C9.43733 58.8836 9.93866 58.4143 10.568 58.1156L11.112 59.8276C10.76 60.0196 10.488 60.2916 10.296 60.6436C10.0933 60.985 9.992 61.3636 9.992 61.7796C9.992 62.249 10.1147 62.6756 10.36 63.0596C10.5947 63.433 10.9253 63.7316 11.352 63.9556C11.768 64.169 12.2533 64.2756 12.808 64.2756C13.3413 64.2756 13.8267 64.1636 14.264 63.9396C14.6907 63.7156 15.032 63.417 15.288 63.0436C15.5333 62.6596 15.656 62.233 15.656 61.7636C15.656 61.4756 15.608 61.1983 15.512 60.9316C15.4053 60.6543 15.2667 60.4143 15.096 60.2116C14.9147 60.009 14.7173 59.865 14.504 59.7796L15.016 58.0516C15.432 58.233 15.8 58.505 16.12 58.8676C16.44 59.2196 16.696 59.641 16.888 60.1316C17.0693 60.6116 17.16 61.1503 17.16 61.7476ZM17.16 52.6482C17.16 53.2989 17.048 53.8909 16.824 54.4242C16.5893 54.9469 16.2747 55.4002 15.88 55.7842C15.4747 56.1682 15.016 56.4669 14.504 56.6802C13.9813 56.8829 13.4267 56.9842 12.84 56.9842C12.0507 56.9842 11.3307 56.8029 10.68 56.4402C10.0187 56.0776 9.49066 55.5709 9.096 54.9202C8.69066 54.2696 8.488 53.5069 8.488 52.6322C8.488 51.7576 8.69066 51.0056 9.096 50.3762C9.49066 49.7362 10.0133 49.2402 10.664 48.8882C11.3147 48.5362 12.0133 48.3602 12.76 48.3602C12.888 48.3602 13.0107 48.3656 13.128 48.3762C13.2347 48.3869 13.3253 48.3976 13.4 48.4082L13.4 55.1122C13.8907 55.0802 14.3227 54.9469 14.696 54.7122C15.0587 54.4669 15.3467 54.1576 15.56 53.7842C15.7627 53.4109 15.864 53.0109 15.864 52.5842C15.864 52.1149 15.7467 51.6722 15.512 51.2562C15.2773 50.8296 14.968 50.5416 14.584 50.3922L15.016 48.8882C15.4213 49.0696 15.7893 49.3469 16.12 49.7202C16.44 50.0829 16.696 50.5149 16.888 51.0162C17.0693 51.5176 17.16 52.0616 17.16 52.6482ZM12.232 55.1602L12.232 50.1042C11.752 50.1362 11.3307 50.2749 10.968 50.5202C10.5947 50.7549 10.3067 51.0589 10.104 51.4322C9.89066 51.7949 9.784 52.2002 9.784 52.6482C9.784 53.0856 9.89066 53.4909 10.104 53.8642C10.3067 54.2269 10.5947 54.5256 10.968 54.7602C11.3307 54.9949 11.752 55.1282 12.232 55.1602ZM17 36.9867L8.904 36.9867L15.048 40.3307L15.048 41.3867L8.904 44.7467L17 44.7467L17 46.5387L5.64 46.5387L5.64 44.6187L12.584 40.8587L5.64 37.0987L5.64 35.1787L17 35.1787L17 36.9867ZM17.08 27.6569C17.08 28.4782 16.92 29.2195 16.6 29.8809C16.28 30.5422 15.848 31.1129 15.304 31.5929C14.7493 32.0729 14.1307 32.4462 13.448 32.7129C12.7547 32.9689 12.0453 33.0969 11.32 33.0969C10.5627 33.0969 9.84266 32.9582 9.16 32.6809C8.46666 32.4035 7.85333 32.0195 7.32 31.5289C6.776 31.0382 6.34933 30.4622 6.03999 29.8009C5.71999 29.1289 5.55999 28.4035 5.55999 27.6249C5.55999 26.8142 5.72533 26.0782 6.05599 25.4169C6.38666 24.7449 6.82933 24.1742 7.38399 23.7049C7.93866 23.2249 8.55733 22.8569 9.23999 22.6009C9.92266 22.3342 10.6213 22.2009 11.336 22.2009C12.0933 22.2009 12.8187 22.3395 13.512 22.6169C14.1947 22.8835 14.808 23.2622 15.352 23.7529C15.8853 24.2435 16.3067 24.8249 16.616 25.4969C16.9253 26.1582 17.08 26.8782 17.08 27.6569ZM11.32 31.2729C11.8533 31.2729 12.3707 31.1875 12.872 31.0169C13.3733 30.8462 13.8213 30.6062 14.216 30.2969C14.6 29.9769 14.904 29.5929 15.128 29.1449C15.352 28.6969 15.464 28.1955 15.464 27.6409C15.464 27.0649 15.3467 26.5529 15.112 26.1049C14.8773 25.6569 14.5627 25.2835 14.168 24.9849C13.7627 24.6755 13.3147 24.4409 12.824 24.2809C12.3227 24.1209 11.8213 24.0409 11.32 24.0409C10.7867 24.0409 10.2747 24.1262 9.78399 24.2969C9.28266 24.4569 8.83999 24.6969 8.45599 25.0169C8.06133 25.3369 7.75199 25.7209 7.528 26.1689C7.30399 26.6062 7.19199 27.0969 7.19199 27.6409C7.19199 28.2169 7.30933 28.7289 7.544 29.1769C7.77866 29.6249 8.09333 30.0035 8.488 30.3129C8.88266 30.6222 9.32533 30.8622 9.81599 31.0329C10.3067 31.1929 10.808 31.2729 11.32 31.2729ZM17 20.1056L5.63999 20.1056L5.63999 15.1616C5.63999 14.6496 5.74666 14.1803 5.95999 13.7536C6.17333 13.327 6.45599 12.959 6.80799 12.6496C7.15999 12.3296 7.55466 12.0843 7.99199 11.9136C8.42933 11.7323 8.87733 11.6416 9.33599 11.6416C9.83733 11.6416 10.3173 11.7323 10.776 11.9136C11.2347 12.095 11.6293 12.3563 11.96 12.6976C12.2907 13.0283 12.5307 13.4176 12.68 13.8656L17 11.1936L17 13.2096L13.048 15.6736L13.048 18.3136L17 18.3136L17 20.1056ZM11.464 18.3136L11.464 15.1776C11.464 14.847 11.368 14.5536 11.176 14.2976C10.984 14.0416 10.728 13.839 10.408 13.6896C10.0773 13.5403 9.71999 13.4656 9.33599 13.4656C8.94133 13.4656 8.58933 13.551 8.27999 13.7216C7.95999 13.8923 7.70399 14.1163 7.51199 14.3936C7.31999 14.6603 7.22399 14.9536 7.22399 15.2736L7.22399 18.3136L11.464 18.3136ZM15.416 1.4955L17 1.4955L17 9.2875L5.63999 9.2875L5.63999 1.6395L7.22399 1.6395L7.22399 7.4955L10.456 7.4955L10.456 2.4235L11.944 2.4235L11.944 7.4955L15.416 7.4955L15.416 1.4955Z" fill="white"/>
<line x1="11.5" y1="253" x2="11.5" y2="152" stroke="white"/>
</svg>
