<svg width="50" height="50" viewBox="0 0 50 50" fill="none" xmlns="http://www.w3.org/2000/svg">
<g id="icon-residences 1">
<g id="g121">
<g id="Clip path group">
<mask id="mask0_132_386" style="mask-type:luminance" maskUnits="userSpaceOnUse" x="1" y="8" width="48" height="34">
<g id="clip0_4535_49057">
<path id="rect6" d="M48.1131 8.19031H1.88647V41.8097H48.1131V8.19031Z" fill="white"/>
</g>
</mask>
<g mask="url(#mask0_132_386)">
<g id="g4">
<path id="path2" d="M35.3177 8.39489C35.0667 8.12211 34.6904 8.12211 34.4396 8.39489L30.049 13.1684H10.6677C10.4795 13.1684 10.354 13.2366 10.2286 13.373L2.07465 22.2382C2.01192 22.3064 2.01192 22.3746 1.9492 22.4428V22.511C1.9492 22.5792 1.94921 22.6474 1.88647 22.7156C1.88647 22.7156 1.88647 22.7156 1.88647 22.7838V41.1959C1.88647 41.6051 2.13736 41.8778 2.51371 41.8778H6.71612H11.7339H22.3968H47.4858C47.8621 41.8778 48.1131 41.6051 48.1131 41.1959V22.6474C48.1131 22.4428 48.0505 22.3064 47.925 22.17L35.3177 8.39489ZM10.9185 14.5323H28.8572L22.0205 22.0336H4.01905L10.9185 14.5323ZM3.14093 23.3975H21.7695V40.4458H12.3612V31.5806C12.3612 31.1714 12.1103 30.8986 11.7339 30.8986H6.71612C6.33978 30.8986 6.08889 31.1714 6.08889 31.5806V40.4458H3.14093V23.3975ZM7.34335 40.4458V32.2625H11.1067V40.4458H7.34335ZM38.0775 26.1253V40.4458H31.8052V26.1253H38.0775ZM44.3497 26.1253V40.4458H39.332V26.1253H44.3497ZM30.5508 40.4458H25.5329V26.1253H30.5508V40.4458ZM46.8587 40.4458H45.6043V25.4433C45.6043 25.0342 45.3533 24.7614 44.977 24.7614H24.9056C24.5293 24.7614 24.2785 25.0342 24.2785 25.4433V40.4458H23.0241V22.852L34.8785 9.82694L46.8587 22.9202V40.4458ZM34.3767 15.5552L31.3034 20.2606C31.1779 20.4652 31.1779 20.738 31.2408 20.9425C31.3661 21.1471 31.5542 21.2835 31.8052 21.2835H37.952C38.2029 21.2835 38.391 21.1471 38.5165 20.9425C38.642 20.738 38.5792 20.4652 38.4538 20.2606L35.3804 15.5552C35.2549 15.3506 35.0667 15.2824 34.8785 15.2824C34.6904 15.2824 34.5022 15.3506 34.3767 15.5552ZM36.7603 19.9878H32.997L34.8785 17.1237L36.7603 19.9878Z" fill="white"/>
</g>
</g>
</g>
</g>
</g>
</svg>
