<svg width="50" height="50" viewBox="0 0 50 50" fill="none" xmlns="http://www.w3.org/2000/svg">
<path d="M17.1568 3.90826C16.4962 3.91428 15.8647 4.18041 15.3989 4.64896L4.29338 15.7538C3.83761 16.1884 3.57269 16.786 3.55668 17.4157C3.54065 18.0453 3.77485 18.6556 4.20796 19.113L17.395 32.299V30.4348L5.14015 18.1807C4.95374 17.9709 4.85808 17.6958 4.87409 17.4157C4.8901 17.1355 5.01648 16.8731 5.22557 16.6858L7.96305 13.9485L17.395 23.3799V21.5158L8.89516 13.0166L12.6616 9.2504L17.395 13.9834V13.1359C17.396 12.8302 17.4327 12.5258 17.5041 12.2286L13.5937 8.31834L16.3311 5.58109C16.5487 5.35843 16.8454 5.23095 17.1568 5.22649C17.2806 5.22479 17.4034 5.24771 17.5183 5.29393C17.6333 5.34015 17.738 5.40874 17.8261 5.4957L21.5118 9.18119H23.3762L18.7583 4.56357C18.5479 4.35389 18.2982 4.18801 18.0231 4.07553C17.7482 3.96304 17.4539 3.90619 17.1568 3.90826Z" fill="white"/>
<path d="M18.7148 13.136V43.4554C18.7157 44.1544 18.9937 44.8245 19.488 45.3188C19.9823 45.813 20.6525 46.0911 21.3515 46.0918H39.8079C40.507 46.0911 41.1771 45.813 41.6715 45.3188C42.1658 44.8245 42.4438 44.1544 42.4446 43.4554V13.136C42.4438 12.437 42.1658 11.7669 41.6715 11.2726C41.1771 10.7784 40.507 10.5003 39.8079 10.4996H21.3515C20.6525 10.5003 19.9823 10.7784 19.488 11.2726C18.9937 11.7669 18.7157 12.437 18.7148 13.136ZM41.1263 13.136V43.4554C41.1263 43.6286 41.0921 43.7999 41.0259 43.9599C40.9597 44.1198 40.8626 44.2652 40.7401 44.3875C40.6178 44.51 40.4724 44.6071 40.3125 44.6733C40.1526 44.7395 39.9812 44.7735 39.8079 44.7735H21.3515C21.1784 44.7735 21.0069 44.7395 20.847 44.6733C20.687 44.6071 20.5418 44.51 20.4193 44.3875C20.2969 44.2652 20.1997 44.1198 20.1335 43.9599C20.0673 43.7999 20.0331 43.6286 20.0331 43.4554V13.136C20.0331 12.9629 20.0673 12.7915 20.1335 12.6316C20.1997 12.4716 20.2969 12.3263 20.4193 12.2039C20.5418 12.0815 20.687 11.9844 20.847 11.9181C21.0069 11.8519 21.1784 11.8178 21.3515 11.8178H39.8079C39.9812 11.8178 40.1526 11.8519 40.3125 11.9181C40.4724 11.9844 40.6178 12.0815 40.7401 12.2039C40.8626 12.3263 40.9597 12.4716 41.0259 12.6316C41.0921 12.7915 41.1263 12.9629 41.1263 13.136Z" fill="white"/>
<path d="M30.5786 31.2627C32.143 31.2627 33.6722 30.7986 34.9728 29.9295C36.2733 29.0603 37.2871 27.825 37.8856 26.3798C38.4841 24.9344 38.6408 23.3442 38.3355 21.8099C38.0303 20.2758 37.2768 18.8665 36.1707 17.7603C35.0645 16.6542 33.6553 15.9011 32.121 15.5959C30.5867 15.2908 28.9964 15.4474 27.5513 16.0461C26.1061 16.6448 24.8708 17.6584 24.0017 18.9592C23.1326 20.2599 22.6687 21.789 22.6687 23.3533C22.6713 25.4503 23.5053 27.4608 24.9883 28.9436C26.4711 30.4264 28.4816 31.2604 30.5786 31.2627ZM33.263 17.3373C34.4262 17.8551 35.4143 18.6989 36.1077 19.7666C36.8012 20.8342 37.1703 22.0802 37.1703 23.3533C37.1703 24.6265 36.8012 25.8723 36.1077 26.94C35.4143 28.0078 34.4262 28.8516 33.263 29.3693C34.1248 27.8215 34.5336 25.5403 34.5336 23.3533C34.5336 21.1662 34.1248 18.885 33.263 17.3373ZM30.5786 16.7621C32.0349 16.7621 33.2153 19.713 33.2153 23.3533C33.2153 26.9935 32.0349 29.9444 30.5786 29.9444C29.1225 29.9444 27.9421 26.9935 27.9421 23.3533C27.9421 19.713 29.1225 16.7621 30.5786 16.7621ZM27.8942 17.3373C27.0326 18.885 26.6237 21.1662 26.6237 23.3533C26.6237 25.5403 27.0326 27.8215 27.8942 29.3693C26.7311 28.8516 25.7431 28.0078 25.0495 26.94C24.3561 25.8723 23.9871 24.6265 23.9871 23.3533C23.9871 22.0802 24.3561 20.8342 25.0495 19.7666C25.7431 18.6989 26.7311 17.8551 27.8942 17.3373Z" fill="white"/>
<path d="M25.305 35.2145C25.1302 35.2145 24.9626 35.284 24.8389 35.4077C24.7154 35.5313 24.646 35.6989 24.646 35.8738C24.646 36.0486 24.7154 36.2162 24.8389 36.3399C24.9626 36.4634 25.1302 36.5328 25.305 36.5328H35.8517C36.0265 36.5328 36.1941 36.4634 36.3178 36.3399C36.4413 36.2162 36.5107 36.0486 36.5107 35.8738C36.5107 35.6989 36.4413 35.5313 36.3178 35.4077C36.1941 35.284 36.0265 35.2145 35.8517 35.2145H25.305Z" fill="white"/>
<path d="M23.1621 39.8301H37.9932C38.168 39.8301 38.3358 39.7607 38.4593 39.6372C38.5829 39.5135 38.6524 39.3459 38.6524 39.1711C38.6524 38.9963 38.5829 38.8286 38.4593 38.705C38.3358 38.5815 38.168 38.512 37.9932 38.512H23.1621C22.9873 38.512 22.8197 38.5815 22.696 38.705C22.5724 38.8286 22.5029 38.9963 22.5029 39.1711C22.5029 39.3459 22.5724 39.5135 22.696 39.6372C22.8197 39.7607 22.9873 39.8301 23.1621 39.8301Z" fill="white"/>
</svg>
