<svg width="23" height="214" viewBox="0 0 23 214" fill="none" xmlns="http://www.w3.org/2000/svg">
<path d="M17 94.72L5.64 94.72L5.64 92.928L15.416 92.928L15.416 86.832L17 86.832L17 94.72ZM17.16 81.6784C17.16 82.3397 17.048 82.9317 16.824 83.4544C16.5893 83.977 16.2693 84.4304 15.864 84.8144C15.4587 85.1877 15 85.4757 14.488 85.6784C13.9653 85.881 13.4107 85.9824 12.824 85.9824C12.2373 85.9824 11.6827 85.881 11.16 85.6784C10.6373 85.4757 10.1787 85.1877 9.784 84.8144C9.37867 84.4304 9.064 83.977 8.84 83.4544C8.60533 82.921 8.488 82.329 8.488 81.6784C8.488 81.0277 8.60533 80.441 8.84 79.9184C9.064 79.385 9.37867 78.9317 9.784 78.5584C10.1787 78.1744 10.6373 77.881 11.16 77.6784C11.6827 77.4757 12.2373 77.3744 12.824 77.3744C13.4107 77.3744 13.9653 77.4757 14.488 77.6784C15 77.881 15.4587 78.1744 15.864 78.5584C16.2693 78.9317 16.5893 79.385 16.824 79.9184C17.048 80.441 17.16 81.0277 17.16 81.6784ZM12.84 84.1744C13.3733 84.1744 13.8533 84.0624 14.28 83.8384C14.7067 83.6144 15.0427 83.3157 15.288 82.9424C15.5333 82.569 15.656 82.1477 15.656 81.6784C15.656 81.2197 15.5333 80.8037 15.288 80.4304C15.032 80.0464 14.6907 79.7424 14.264 79.5184C13.8267 79.2944 13.3467 79.1824 12.824 79.1824C12.2907 79.1824 11.8107 79.2944 11.384 79.5184C10.9573 79.7424 10.6213 80.0464 10.376 80.4304C10.12 80.8037 9.992 81.2197 9.992 81.6784C9.992 82.1477 10.12 82.569 10.376 82.9424C10.632 83.3157 10.9733 83.6144 11.4 83.8384C11.816 84.0624 12.296 84.1744 12.84 84.1744ZM17 73.5186L8.632 76.7026L8.632 74.8786L15.368 72.4946L8.632 70.1106L8.632 68.4146L17 71.5986L17 73.5186ZM17.16 63.4007C17.16 64.0514 17.048 64.6434 16.824 65.1767C16.5893 65.6994 16.2747 66.1527 15.88 66.5367C15.4747 66.9207 15.016 67.2194 14.504 67.4328C13.9813 67.6354 13.4267 67.7368 12.84 67.7368C12.0507 67.7368 11.3307 67.5554 10.68 67.1928C10.0187 66.8301 9.49067 66.3234 9.096 65.6728C8.69067 65.0221 8.488 64.2594 8.488 63.3847C8.488 62.5101 8.69067 61.7581 9.096 61.1287C9.49066 60.4888 10.0133 59.9928 10.664 59.6407C11.3147 59.2887 12.0133 59.1127 12.76 59.1127C12.888 59.1127 13.0107 59.1181 13.128 59.1287C13.2347 59.1394 13.3253 59.1501 13.4 59.1607L13.4 65.8648C13.8907 65.8327 14.3227 65.6994 14.696 65.4647C15.0587 65.2194 15.3467 64.9101 15.56 64.5367C15.7627 64.1634 15.864 63.7634 15.864 63.3367C15.864 62.8674 15.7467 62.4247 15.512 62.0087C15.2773 61.5821 14.968 61.2941 14.584 61.1447L15.016 59.6407C15.4213 59.8221 15.7893 60.0994 16.12 60.4727C16.44 60.8354 16.696 61.2674 16.888 61.7687C17.0693 62.2701 17.16 62.8141 17.16 63.4007ZM12.232 65.9127L12.232 60.8567C11.752 60.8887 11.3307 61.0274 10.968 61.2727C10.5947 61.5074 10.3067 61.8114 10.104 62.1848C9.89066 62.5474 9.784 62.9527 9.784 63.4008C9.784 63.8381 9.89066 64.2434 10.104 64.6168C10.3067 64.9794 10.5947 65.2781 10.968 65.5128C11.3307 65.7474 11.752 65.8808 12.232 65.9127ZM17 47.7392L8.904 47.7392L15.048 51.0832L15.048 52.1393L8.904 55.4993L17 55.4993L17 57.2913L5.64 57.2913L5.64 55.3713L12.584 51.6112L5.64 47.8513L5.64 45.9313L17 45.9312L17 47.7392ZM17.08 38.4094C17.08 39.2307 16.92 39.972 16.6 40.6334C16.28 41.2947 15.848 41.8654 15.304 42.3454C14.7493 42.8254 14.1307 43.1987 13.448 43.4654C12.7547 43.7214 12.0453 43.8494 11.32 43.8494C10.5627 43.8494 9.84266 43.7107 9.16 43.4334C8.46666 43.156 7.85333 42.772 7.32 42.2814C6.776 41.7907 6.34933 41.2147 6.04 40.5534C5.72 39.8814 5.56 39.156 5.56 38.3774C5.56 37.5667 5.72533 36.8307 6.056 36.1694C6.38666 35.4974 6.82933 34.9267 7.384 34.4574C7.93866 33.9774 8.55733 33.6094 9.24 33.3534C9.92266 33.0867 10.6213 32.9534 11.336 32.9534C12.0933 32.9534 12.8187 33.092 13.512 33.3694C14.1947 33.636 14.808 34.0147 15.352 34.5054C15.8853 34.996 16.3067 35.5774 16.616 36.2494C16.9253 36.9107 17.08 37.6307 17.08 38.4094ZM11.32 42.0254C11.8533 42.0254 12.3707 41.94 12.872 41.7694C13.3733 41.5987 13.8213 41.3587 14.216 41.0494C14.6 40.7294 14.904 40.3454 15.128 39.8974C15.352 39.4494 15.464 38.948 15.464 38.3934C15.464 37.8174 15.3467 37.3054 15.112 36.8574C14.8773 36.4094 14.5627 36.036 14.168 35.7374C13.7627 35.428 13.3147 35.1934 12.824 35.0334C12.3227 34.8734 11.8213 34.7934 11.32 34.7934C10.7867 34.7934 10.2747 34.8787 9.784 35.0494C9.28266 35.2094 8.84 35.4494 8.456 35.7694C8.06133 36.0894 7.752 36.4734 7.528 36.9214C7.304 37.3587 7.192 37.8494 7.192 38.3934C7.192 38.9694 7.30933 39.4814 7.544 39.9294C7.77866 40.3774 8.09333 40.756 8.488 41.0654C8.88266 41.3747 9.32533 41.6147 9.816 41.7854C10.3067 41.9454 10.808 42.0254 11.32 42.0254ZM17 30.8581L5.64 30.8581L5.64 25.9141C5.64 25.4021 5.74666 24.9328 5.96 24.5061C6.17333 24.0795 6.456 23.7115 6.808 23.4021C7.16 23.0821 7.55466 22.8368 7.992 22.6661C8.42933 22.4848 8.87733 22.3941 9.336 22.3941C9.83733 22.3941 10.3173 22.4848 10.776 22.6661C11.2347 22.8475 11.6293 23.1088 11.96 23.4501C12.2907 23.7808 12.5307 24.1701 12.68 24.6181L17 21.9461L17 23.9621L13.048 26.4261L13.048 29.0661L17 29.0661L17 30.8581ZM11.464 29.0661L11.464 25.9301C11.464 25.5995 11.368 25.3061 11.176 25.0501C10.984 24.7941 10.728 24.5915 10.408 24.4421C10.0773 24.2928 9.72 24.2181 9.336 24.2181C8.94133 24.2181 8.58933 24.3035 8.28 24.4741C7.96 24.6448 7.704 24.8688 7.512 25.1461C7.32 25.4128 7.224 25.7061 7.224 26.0261L7.224 29.0661L11.464 29.0661ZM15.416 12.248L17 12.248L17 20.04L5.64 20.04L5.64 12.392L7.224 12.392L7.224 18.248L10.456 18.248L10.456 13.176L11.944 13.176L11.944 18.248L15.416 18.248L15.416 12.248ZM10.616 1.32625L12.024 1.32625L12.024 3.10225L13.96 3.10225L13.96 4.68625L12.024 4.68625L12.024 6.46225L10.616 6.46225L10.616 4.68625L8.68 4.68625L8.68 3.10225L10.616 3.10225L10.616 1.32625Z" fill="white"/>
<line x1="11.5" y1="214" x2="11.5" y2="113" stroke="white"/>
</svg>
