<svg width="50" height="50" viewBox="0 0 50 50" fill="none" xmlns="http://www.w3.org/2000/svg">
<mask id="mask0_1_5" style="mask-type:alpha" maskUnits="userSpaceOnUse" x="0" y="0" width="50" height="50">
<rect width="50" height="50" fill="#D9D9D9"/>
</mask>
<g mask="url(#mask0_1_5)">
<path d="M44.9138 30.1293L30.1293 44.9138C29.7616 45.2759 29.3478 45.5474 28.888 45.7284C28.4282 45.9095 27.972 46 27.5194 46C27.0668 46 26.6142 45.9095 26.1616 45.7284C25.7091 45.5474 25.3017 45.2759 24.9397 44.9138L5.08621 25.1207C4.72414 24.7989 4.45259 24.411 4.27155 23.9572C4.09052 23.5034 4 23.0263 4 22.5259V7.68103C4 6.66885 4.35201 5.8023 5.05603 5.08138C5.76006 4.36046 6.63506 4 7.68103 4H22.5259C23.0114 4 23.4819 4.09796 23.9373 4.29388C24.3923 4.4902 24.7868 4.75431 25.1207 5.08621L44.9138 24.8793C45.2916 25.247 45.5671 25.6608 45.7405 26.1206C45.9135 26.5804 46 27.0441 46 27.5116C46 27.979 45.9135 28.4387 45.7405 28.8904C45.5671 29.3422 45.2916 29.7552 44.9138 30.1293ZM28.9224 43.7069L43.7069 28.9224C44.1092 28.5201 44.3103 28.0474 44.3103 27.5043C44.3103 26.9612 44.1092 26.4885 43.7069 26.0862L23.3103 5.75H7.68103C7.11782 5.75 6.64511 5.93103 6.26293 6.2931C5.88075 6.65517 5.68966 7.11782 5.68966 7.68103V22.5259C5.68966 22.7672 5.72989 23.0086 5.81034 23.25C5.8908 23.4914 6.03161 23.7126 6.23276 23.9138L26.0862 43.7069C26.4885 44.1092 26.9612 44.3103 27.5043 44.3103C28.0474 44.3103 28.5201 44.1092 28.9224 43.7069ZM11.8804 13.9569C12.4601 13.9569 12.9511 13.7574 13.3534 13.3583C13.7557 12.9596 13.9569 12.4752 13.9569 11.9052C13.9569 11.3186 13.7574 10.82 13.3583 10.4092C12.9596 9.99848 12.4752 9.7931 11.9052 9.7931C11.3186 9.7931 10.82 9.99607 10.4092 10.402C9.99848 10.8079 9.7931 11.3007 9.7931 11.8804C9.7931 12.4601 9.99606 12.9511 10.402 13.3534C10.8079 13.7557 11.3007 13.9569 11.8804 13.9569ZM28.7414 35.0776L34.4138 29.1034C34.7356 28.7816 34.977 28.4095 35.1379 27.9871C35.2989 27.5647 35.3793 27.092 35.3793 26.569C35.3793 25.6437 35.0496 24.829 34.3903 24.125C33.7309 23.421 32.9341 23.069 32 23.069C31.2083 23.069 30.427 23.2701 29.6562 23.6724C28.8854 24.0747 28.1379 24.7989 27.4138 25.8448C26.6897 24.7989 25.9462 24.0747 25.1834 23.6724C24.4207 23.2701 23.6354 23.069 22.8276 23.069C21.8934 23.069 21.0967 23.421 20.4373 24.125C19.778 24.829 19.4483 25.6437 19.4483 26.569C19.4483 27.092 19.5287 27.5647 19.6897 27.9871C19.8506 28.4095 20.092 28.7816 20.4138 29.1034L26.0862 35.0776C26.4483 35.4397 26.8908 35.6207 27.4138 35.6207C27.9368 35.6207 28.3793 35.4397 28.7414 35.0776Z" fill="white"/>
</g>
</svg>
