<svg width="190" height="26" viewBox="0 0 190 26" fill="none" xmlns="http://www.w3.org/2000/svg">
<g id="5fff97a.svg" clip-path="url(#clip0_132_290)">
<path id="Vector" d="M130.943 7.24591H134.345V6.61429H130.943V4.36842H134.75V3.71924H130.22V9.983H130.943V7.24591Z" fill="#262633"/>
<path id="Vector_2" d="M140.497 9.98289H141.255L138.382 3.6665H137.712L134.838 9.98289H135.561L136.302 8.33362H139.722L140.497 9.98289ZM136.619 7.68447L138.065 4.49115L139.492 7.68447H136.619Z" fill="#262633"/>
<path id="Vector_3" d="M145.521 8.26356L147.813 4.91234V9.983H148.536V3.71924H147.813L145.521 7.14064L143.23 3.71924H142.507V9.983H143.195V4.91234L145.486 8.26356H145.521Z" fill="#262633"/>
<path id="Vector_4" d="M151.074 3.71924H150.369V9.983H151.074V3.71924Z" fill="#262633"/>
<path id="Vector_5" d="M157.174 9.33385H153.63V3.71924H152.925V9.983H157.174V9.33385Z" fill="#262633"/>
<path id="Vector_6" d="M159.289 9.983H160.011V7.49156L162.621 3.71924H161.81L159.659 6.84235L157.544 3.71924H156.68L159.289 7.50908V9.983Z" fill="#262633"/>
<path id="Vector_7" d="M133.128 21.2299C131.736 21.2299 130.696 20.0894 130.696 18.6507V18.6331C130.696 17.1944 131.736 16.0715 133.128 16.0715C133.975 16.0715 134.574 16.4224 135.103 16.9312L135.597 16.4049C134.962 15.8083 134.292 15.4048 133.146 15.4048C131.295 15.4048 129.956 16.8786 129.956 18.6507V18.6682C129.956 20.4579 131.295 21.8966 133.111 21.8966C134.257 21.8966 134.98 21.458 135.632 20.7912L135.156 20.335C134.557 20.8965 133.992 21.2299 133.128 21.2299Z" fill="#262633"/>
<path id="Vector_8" d="M139.616 15.4048C137.694 15.4048 136.39 16.9137 136.39 18.6507V18.6682C136.39 20.3877 137.677 21.8966 139.598 21.8966C141.52 21.8966 142.824 20.3877 142.824 18.6507V18.6331C142.824 16.8962 141.537 15.4048 139.616 15.4048ZM142.084 18.6507C142.084 20.0719 141.062 21.2123 139.616 21.2123C138.171 21.2123 137.131 20.0543 137.131 18.6331V18.6156C137.131 17.1944 138.153 16.0539 139.598 16.0539C141.044 16.0539 142.084 17.212 142.084 18.6331V18.6507Z" fill="#262633"/>
<path id="Vector_9" d="M145.028 15.51H144.322V21.7738H148.571V21.1246H145.028V15.51Z" fill="#262633"/>
<path id="Vector_10" d="M150.598 15.51H149.893V21.7738H154.141V21.1246H150.598V15.51Z" fill="#262633"/>
<path id="Vector_11" d="M156.169 18.9314H159.606V18.2997H156.169V16.1592H159.994V15.51H155.446V21.7738H160.047V21.1246H156.169V18.9314Z" fill="#262633"/>
<path id="Vector_12" d="M164.366 21.2299C162.973 21.2299 161.933 20.0894 161.933 18.6507V18.6331C161.933 17.1944 162.973 16.0715 164.366 16.0715C165.212 16.0715 165.811 16.4224 166.34 16.9312L166.834 16.4049C166.199 15.8083 165.529 15.4048 164.383 15.4048C162.533 15.4048 161.192 16.8786 161.192 18.6507V18.6682C161.192 20.4579 162.533 21.8966 164.348 21.8966C165.494 21.8966 166.216 21.458 166.869 20.7912L166.393 20.335C165.793 20.8965 165.229 21.2299 164.366 21.2299Z" fill="#262633"/>
<path id="Vector_13" d="M167.662 16.1592H169.778V21.7738H170.501V16.1592H172.616V15.51H167.662V16.1592Z" fill="#262633"/>
<path id="Vector_14" d="M174.714 15.51H174.009V21.7738H174.714V15.51Z" fill="#262633"/>
<path id="Vector_15" d="M179.491 15.4048C177.569 15.4048 176.265 16.9137 176.265 18.6507V18.6682C176.265 20.3877 177.552 21.8966 179.473 21.8966C181.395 21.8966 182.699 20.3877 182.699 18.6507V18.6331C182.699 16.8962 181.412 15.4048 179.491 15.4048ZM181.959 18.6507C181.959 20.0719 180.936 21.2123 179.491 21.2123C178.045 21.2123 177.005 20.0543 177.005 18.6331V18.6156C177.005 17.1944 178.028 16.0539 179.473 16.0539C180.918 16.0539 181.959 17.212 181.959 18.6331V18.6507Z" fill="#262633"/>
<path id="Vector_16" d="M188.834 15.51V20.528L184.867 15.51H184.198V21.7738H184.885V16.6329L188.958 21.7738H189.521V15.51H188.834Z" fill="#262633"/>
<path id="Vector_17" d="M21.4183 0.894531L13.0802 20.7035L4.72438 0.894531C3.7372 0.929617 2.78528 0.94716 1.86861 0.94716C1.3574 0.94716 0.740403 0.94716 0.0176455 0.929617V1.1928L0.634635 1.3858C1.07534 1.54372 1.30449 1.89462 1.32212 2.35081C1.33975 3.12281 1.35737 4.22818 1.35737 5.40373V19.5981C1.35737 20.9842 1.33975 22.2826 1.32212 23.23C1.30449 23.7037 0.987172 24.0196 0.564096 24.1424L0 24.3178V24.5811C0.758017 24.5635 1.42788 24.5635 1.97436 24.5635C2.48558 24.5635 3.08494 24.5635 3.73718 24.5635V24.3003L3.34937 24.1775C2.87341 24.0371 2.62662 23.6687 2.60899 23.195C2.59136 22.265 2.57374 20.9842 2.57374 19.5981V2.43854L11.9343 24.6688L12.6747 24.5811L22.0706 2.29818L22.0001 4.21064V19.5805C22.0001 20.9666 21.9825 22.2475 21.9648 23.1774C21.9472 23.6511 21.718 24.0196 21.2421 24.1599L20.8366 24.2828V24.5635C21.6299 24.546 22.4408 24.546 23.2517 24.546C24.1155 24.546 25.0145 24.546 25.9312 24.546V24.3003L25.4024 24.1424C24.9616 24.0196 24.6443 23.7037 24.6267 23.23C24.609 22.2826 24.5915 20.9842 24.5915 19.5981V5.40373C24.5915 4.22818 24.609 3.12281 24.6267 2.35081C24.6443 1.89462 24.8911 1.54372 25.3318 1.3858L25.9312 1.1928V0.912074C25.2261 0.929623 24.609 0.929617 24.1155 0.929617C23.3046 0.94716 22.4055 0.929617 21.4183 0.894531Z" fill="#262633"/>
<path id="Vector_18" d="M46.5563 0.31543C42.5723 0.31543 39.5049 1.47344 37.3014 3.71928C35.0978 5.98265 33.9873 9.05314 33.9873 13.0009C33.9873 16.7907 35.0274 19.7559 37.0722 21.9491C39.1171 24.1072 42.0081 25.2126 45.8335 25.2126C49.8527 25.2126 52.92 24.0195 55.1059 21.6684C57.3095 19.2997 58.4377 16.1591 58.4377 12.1938C58.4377 8.47415 57.3976 5.5791 55.3527 3.49118C53.2902 1.40325 50.3992 0.31543 46.5563 0.31543ZM53.2197 21.721C51.739 23.6862 49.4473 24.6336 46.4505 24.6336C43.3831 24.6336 41.0034 23.5809 39.3816 21.4403C37.7774 19.3173 37.0018 16.2995 37.0018 12.457C37.0018 8.68469 37.6716 5.8072 39.0995 3.87718C40.5627 1.89453 42.8719 0.947074 45.9393 0.947074C49.1123 0.947074 51.5274 1.98226 53.0963 4.08773C54.6476 6.17565 55.388 9.10577 55.388 12.8254C55.388 16.7732 54.6829 19.7734 53.2197 21.721Z" fill="#262633"/>
<path id="Vector_19" d="M106.263 23.6862C105.964 23.8616 105.488 23.8441 105.488 23.8441H93.6413V23.4405C93.6239 22.1773 93.606 20.8613 93.606 19.563V12.7904H95.5804C96.7968 12.7904 100.71 12.8079 102.227 12.8255C102.702 12.843 103.002 13.1588 103.143 13.5975L103.354 14.4396H103.584C103.566 13.615 103.566 12.9483 103.566 12.4746C103.566 11.9832 103.566 11.3341 103.584 10.5095H103.372L103.161 11.3516C103.02 11.8078 102.667 12.0885 102.191 12.0885C100.71 12.1061 96.8148 12.1236 95.6157 12.1236H93.6239V1.68402H105.224C105.224 1.68402 105.717 1.64893 105.981 1.96474C106.281 2.3332 106.245 2.98239 106.245 2.98239H106.528L106.898 0.859375C104.148 0.894467 99.0004 0.929553 96.515 0.929553H92.2843C91.403 0.929553 90.5037 0.912017 89.5871 0.912017V1.1752L90.2745 1.38574C90.7155 1.54365 90.9447 1.89456 90.962 2.35075C90.9793 2.73675 90.9793 3.28066 90.9793 3.75439C90.9973 4.24567 90.9973 4.77204 90.9973 5.36859V19.563C90.9973 20.2647 90.9973 21.0017 90.9793 21.5982C90.9793 22.1773 90.9793 22.7036 90.962 23.1773C90.9267 23.6335 90.6449 23.9669 90.2039 24.0897L89.5691 24.2827V24.5634C90.5037 24.5459 91.4203 24.5459 92.3369 24.5459H96.4797C98.9651 24.5459 104.218 24.5634 107.074 24.6161L107.215 22.4931H106.916C106.933 22.5282 106.722 23.423 106.263 23.6862Z" fill="#262633"/>
<path id="Vector_20" d="M81.372 23.7915C81.1608 23.6336 80.949 23.4406 80.7372 23.2301C80.3322 22.8265 79.8912 22.265 79.4509 21.5983C79.0099 20.9316 78.5695 20.142 78.0226 19.2823C77.529 18.4577 74.8851 14.0713 74.6026 13.58C74.6026 13.58 74.6026 13.5625 74.55 13.4922C78.2518 12.8431 81.3547 11.264 81.3547 7.43907C81.3547 2.28065 77.0887 0.789278 71.8175 0.789278C71.8175 0.789278 71.8175 0.789278 71.8001 0.789278C71.2179 0.789278 70.4425 0.771729 69.5612 0.771729C68.7678 0.771729 67.9039 0.771729 67.0052 0.789278C63.9907 0.841913 63.0035 0.877005 62.7919 0.894548C62.6861 0.894548 62.5804 0.894548 62.4923 0.894548L62.3865 3.05265H62.6685C62.7038 2.91229 62.8801 2.15783 63.2855 1.89465C63.5676 1.70164 63.832 1.70165 64.0259 1.6841C64.8016 1.61392 65.4185 1.59637 67.1111 1.57883C69.3141 1.56128 70.3719 1.52619 71.5883 1.56128C71.6416 1.56128 71.6769 1.56128 71.7295 1.56128C75.9076 1.82446 78.481 3.15793 78.481 7.4566C78.481 11.1061 76.9295 12.5273 74.2149 12.9835C73.1045 13.1764 71.8707 13.2291 70.6011 13.2291C70.6717 13.2291 70.6897 13.2467 70.6897 13.2467C70.7776 13.2817 70.9541 13.3694 71.0241 13.4221C71.2179 13.5449 71.3771 13.7028 71.5177 13.8958C71.6589 14.0713 71.8175 14.2994 71.994 14.5976C72.5755 15.5802 73.281 16.7382 73.704 17.4576C74.127 18.177 74.8145 19.3349 75.3607 20.2473C75.9602 21.265 76.242 21.7387 76.7536 22.5633C77.106 23.1423 77.617 23.7038 78.0406 24.0196C78.2345 24.1775 78.4456 24.2828 78.6395 24.3881C78.8513 24.4758 79.0805 24.5635 79.3449 24.6162C79.6094 24.6863 79.8912 24.7214 80.2263 24.739C80.5787 24.7565 80.9843 24.7741 81.46 24.7741C81.8483 24.7741 82.7117 24.739 83.3818 24.6863V24.4758C83.0294 24.4583 82.5178 24.4056 82.0242 24.1775C81.7071 24.0547 81.5839 23.9494 81.372 23.7915Z" fill="#262633"/>
<path id="Vector_21" d="M117.81 0C117.668 0 117.545 0.122819 117.545 0.263183V25.3007C117.545 25.4411 117.668 25.5639 117.81 25.5639C117.951 25.5639 118.074 25.4411 118.074 25.3007V0.263183C118.074 0.105273 117.951 0 117.81 0Z" fill="#262633"/>
</g>
<defs>
<clipPath id="clip0_132_290">
<rect width="190" height="25.6757" fill="white"/>
</clipPath>
</defs>
</svg>
