<svg width="78" height="56" viewBox="0 0 78 56" fill="none" xmlns="http://www.w3.org/2000/svg">
<path id="&#226;&#128;&#156;" opacity="0.75" d="M60.7133 55.6C54.18 55.6 49.4467 53.2667 46.5133 48.6C45.18 46.6 44.1133 44.1333 43.3133 41.2C42.5133 38.2667 42.1133 35.2 42.1133 32C42.1133 25.0667 43.8467 18.8 47.3133 13.2C50.9133 7.60001 56.18 3.20001 63.1133 0L64.9133 3.6C61.0467 5.20001 57.6467 7.66667 54.7133 11C51.9133 14.3333 50.2467 17.7333 49.7133 21.2C49.3133 22.8 49.1133 24.3333 49.1133 25.8C49.1133 27.1333 49.3133 28.4 49.7133 29.6C52.6467 26.4 56.5133 24.8 61.3133 24.8C65.98 24.8 69.78 26.2 72.7133 29C75.6467 31.6667 77.1133 35.4 77.1133 40.2C77.1133 44.7333 75.58 48.4667 72.5133 51.4C69.4467 54.2 65.5133 55.6 60.7133 55.6ZM19.5133 55.6C12.98 55.6 8.24666 53.2667 5.31333 48.6C3.98 46.6 2.91333 44.1333 2.11333 41.2C1.31333 38.2667 0.91333 35.2 0.91333 32C0.91333 25.0667 2.64666 18.8 6.11333 13.2C9.71333 7.60001 14.98 3.20001 21.9133 0L23.7133 3.6C19.8467 5.20001 16.4467 7.66667 13.5133 11C10.7133 14.3333 9.04666 17.7333 8.51333 21.2C8.11333 22.8 7.91333 24.3333 7.91333 25.8C7.91333 27.1333 8.11333 28.4 8.51333 29.6C11.4467 26.4 15.3133 24.8 20.1133 24.8C24.78 24.8 28.58 26.2 31.5133 29C34.4467 31.6667 35.9133 35.4 35.9133 40.2C35.9133 44.7333 34.38 48.4667 31.3133 51.4C28.2467 54.2 24.3133 55.6 19.5133 55.6Z" fill="#83715C"/>
</svg>
