<svg width="23" height="206" viewBox="0 0 23 206" fill="none" xmlns="http://www.w3.org/2000/svg">
<path d="M8.312 80C8.19467 80.1067 8.072 80.2613 7.944 80.464C7.80533 80.6667 7.67733 80.9067 7.56 81.184C7.44267 81.4613 7.34667 81.76 7.272 82.08C7.19733 82.4 7.16 82.7307 7.16 83.072C7.16 83.8187 7.29867 84.3733 7.576 84.736C7.85333 85.0987 8.23733 85.28 8.728 85.28C9.09067 85.28 9.37867 85.1787 9.592 84.976C9.79467 84.7733 9.96533 84.464 10.104 84.048C10.2427 83.632 10.392 83.1093 10.552 82.48C10.7333 81.712 10.952 81.0453 11.208 80.48C11.4533 79.9147 11.784 79.4827 12.2 79.184C12.616 78.8853 13.1653 78.736 13.848 78.736C14.424 78.736 14.92 78.8427 15.336 79.056C15.752 79.2693 16.0933 79.568 16.36 79.952C16.616 80.336 16.808 80.7787 16.936 81.28C17.0533 81.7813 17.112 82.32 17.112 82.896C17.112 83.4613 17.0533 84.0267 16.936 84.592C16.8187 85.1467 16.648 85.68 16.424 86.192C16.1893 86.6933 15.9067 87.1573 15.576 87.584L14.04 86.768C14.1787 86.6293 14.3333 86.432 14.504 86.176C14.664 85.9093 14.8187 85.6053 14.968 85.264C15.1173 84.912 15.2453 84.5333 15.352 84.128C15.448 83.712 15.496 83.2907 15.496 82.864C15.496 82.1493 15.3733 81.6053 15.128 81.232C14.872 80.848 14.5093 80.656 14.04 80.656C13.656 80.656 13.352 80.7787 13.128 81.024C12.8933 81.2693 12.696 81.6267 12.536 82.096C12.376 82.5653 12.216 83.1253 12.056 83.776C11.8533 84.5227 11.6347 85.1467 11.4 85.648C11.1547 86.1493 10.8453 86.528 10.472 86.784C10.088 87.0293 9.60267 87.152 9.016 87.152C8.26933 87.152 7.64 86.9707 7.128 86.608C6.60533 86.2453 6.216 85.7547 5.96 85.136C5.69333 84.5067 5.56 83.8027 5.56 83.024C5.56 82.512 5.61867 82.0267 5.736 81.568C5.84267 81.1093 5.992 80.6827 6.184 80.288C6.376 79.8827 6.59467 79.5147 6.84 79.184L8.312 80ZM17.16 73.1307C17.16 73.7814 17.048 74.3734 16.824 74.9067C16.5893 75.4294 16.2747 75.8827 15.88 76.2667C15.4747 76.6507 15.016 76.9494 14.504 77.1627C13.9813 77.3654 13.4267 77.4667 12.84 77.4667C12.0507 77.4667 11.3307 77.2854 10.68 76.9227C10.0187 76.5601 9.49067 76.0534 9.096 75.4027C8.69067 74.7521 8.488 73.9894 8.488 73.1147C8.488 72.2401 8.69067 71.4881 9.096 70.8587C9.49067 70.2187 10.0133 69.7227 10.664 69.3707C11.3147 69.0187 12.0133 68.8427 12.76 68.8427C12.888 68.8427 13.0107 68.8481 13.128 68.8587C13.2347 68.8694 13.3253 68.8801 13.4 68.8907L13.4 75.5947C13.8907 75.5627 14.3227 75.4294 14.696 75.1947C15.0587 74.9494 15.3467 74.6401 15.56 74.2667C15.7627 73.8934 15.864 73.4934 15.864 73.0667C15.864 72.5974 15.7467 72.1547 15.512 71.7387C15.2773 71.3121 14.968 71.0241 14.584 70.8747L15.016 69.3707C15.4213 69.5521 15.7893 69.8294 16.12 70.2027C16.44 70.5654 16.696 70.9974 16.888 71.4987C17.0693 72.0001 17.16 72.5441 17.16 73.1307ZM12.232 75.6427L12.232 70.5867C11.752 70.6187 11.3307 70.7574 10.968 71.0027C10.5947 71.2374 10.3067 71.5414 10.104 71.9147C9.89067 72.2774 9.784 72.6827 9.784 73.1307C9.784 73.5681 9.89067 73.9734 10.104 74.3467C10.3067 74.7094 10.5947 75.0081 10.968 75.2427C11.3307 75.4774 11.752 75.6107 12.232 75.6427ZM17.16 63.3751C17.16 64.0258 17.048 64.6178 16.824 65.1511C16.5893 65.6738 16.2747 66.1271 15.88 66.5111C15.4747 66.8951 15.016 67.1938 14.504 67.4071C13.9813 67.6098 13.4267 67.7111 12.84 67.7111C12.0507 67.7111 11.3307 67.5298 10.68 67.1671C10.0187 66.8045 9.49067 66.2978 9.096 65.6471C8.69067 64.9965 8.488 64.2338 8.488 63.3591C8.488 62.4845 8.69067 61.7325 9.096 61.1031C9.49067 60.4631 10.0133 59.9671 10.664 59.6151C11.3147 59.2631 12.0133 59.0871 12.76 59.0871C12.888 59.0871 13.0107 59.0925 13.128 59.1031C13.2347 59.1138 13.3253 59.1245 13.4 59.1351L13.4 65.8391C13.8907 65.8071 14.3227 65.6738 14.696 65.4391C15.0587 65.1938 15.3467 64.8845 15.56 64.5111C15.7627 64.1378 15.864 63.7378 15.864 63.3111C15.864 62.8418 15.7467 62.3991 15.512 61.9831C15.2773 61.5565 14.968 61.2685 14.584 61.1191L15.016 59.6151C15.4213 59.7965 15.7893 60.0738 16.12 60.4471C16.44 60.8098 16.696 61.2418 16.888 61.7431C17.0693 62.2445 17.16 62.7885 17.16 63.3751ZM12.232 65.8871L12.232 60.8311C11.752 60.8631 11.3307 61.0018 10.968 61.2471C10.5947 61.4818 10.3067 61.7858 10.104 62.1591C9.89067 62.5218 9.784 62.9271 9.784 63.3751C9.784 63.8125 9.89067 64.2178 10.104 64.5911C10.3067 64.9538 10.5947 65.2525 10.968 65.4871C11.3307 65.7218 11.752 65.8551 12.232 65.8871ZM17 47.7136L8.904 47.7136L15.048 51.0576L15.048 52.1136L8.904 55.4736L17 55.4736L17 57.2656L5.64 57.2656L5.64 55.3456L12.584 51.5856L5.64 47.8256L5.64 45.9056L17 45.9056L17 47.7136ZM17.08 38.3837C17.08 39.2051 16.92 39.9464 16.6 40.6077C16.28 41.2691 15.848 41.8398 15.304 42.3198C14.7493 42.7998 14.1307 43.1731 13.448 43.4398C12.7547 43.6958 12.0453 43.8238 11.32 43.8238C10.5627 43.8238 9.84266 43.6851 9.16 43.4078C8.46666 43.1304 7.85333 42.7464 7.32 42.2558C6.776 41.7651 6.34933 41.1891 6.04 40.5278C5.72 39.8558 5.56 39.1304 5.56 38.3518C5.56 37.5411 5.72533 36.8051 6.056 36.1437C6.38666 35.4718 6.82933 34.9011 7.384 34.4317C7.93866 33.9517 8.55733 33.5837 9.24 33.3277C9.92266 33.0611 10.6213 32.9278 11.336 32.9278C12.0933 32.9278 12.8187 33.0664 13.512 33.3437C14.1947 33.6104 14.808 33.9891 15.352 34.4797C15.8853 34.9704 16.3067 35.5517 16.616 36.2237C16.9253 36.8851 17.08 37.6051 17.08 38.3837ZM11.32 41.9998C11.8533 41.9998 12.3707 41.9144 12.872 41.7438C13.3733 41.5731 13.8213 41.3331 14.216 41.0238C14.6 40.7038 14.904 40.3198 15.128 39.8718C15.352 39.4238 15.464 38.9224 15.464 38.3677C15.464 37.7918 15.3467 37.2797 15.112 36.8317C14.8773 36.3838 14.5627 36.0104 14.168 35.7117C13.7627 35.4024 13.3147 35.1677 12.824 35.0077C12.3227 34.8478 11.8213 34.7678 11.32 34.7678C10.7867 34.7678 10.2747 34.8531 9.784 35.0237C9.28266 35.1837 8.84 35.4237 8.456 35.7438C8.06133 36.0637 7.752 36.4477 7.528 36.8958C7.304 37.3331 7.192 37.8238 7.192 38.3678C7.192 38.9438 7.30933 39.4558 7.544 39.9038C7.77866 40.3518 8.09333 40.7304 8.488 41.0398C8.88266 41.3491 9.32533 41.5891 9.816 41.7598C10.3067 41.9198 10.808 41.9998 11.32 41.9998ZM17 30.8325L5.64 30.8325L5.64 25.8885C5.64 25.3765 5.74666 24.9072 5.96 24.4805C6.17333 24.0538 6.456 23.6858 6.808 23.3765C7.16 23.0565 7.55466 22.8112 7.992 22.6405C8.42933 22.4592 8.87733 22.3685 9.336 22.3685C9.83733 22.3685 10.3173 22.4592 10.776 22.6405C11.2347 22.8218 11.6293 23.0832 11.96 23.4245C12.2907 23.7552 12.5307 24.1445 12.68 24.5925L17 21.9205L17 23.9365L13.048 26.4005L13.048 29.0405L17 29.0405L17 30.8325ZM11.464 29.0405L11.464 25.9045C11.464 25.5738 11.368 25.2805 11.176 25.0245C10.984 24.7685 10.728 24.5658 10.408 24.4165C10.0773 24.2672 9.72 24.1925 9.336 24.1925C8.94133 24.1925 8.58933 24.2778 8.28 24.4485C7.96 24.6192 7.704 24.8432 7.512 25.1205C7.32 25.3872 7.224 25.6805 7.224 26.0005L7.224 29.0405L11.464 29.0405ZM15.416 12.2224L17 12.2224L17 20.0144L5.64 20.0144L5.64 12.3664L7.224 12.3664L7.224 18.2224L10.456 18.2224L10.456 13.1504L11.944 13.1504L11.944 18.2224L15.416 18.2224L15.416 12.2224ZM10.616 1.30063L12.024 1.30063L12.024 3.07663L13.96 3.07663L13.96 4.66063L12.024 4.66063L12.024 6.43663L10.616 6.43663L10.616 4.66063L8.68 4.66063L8.68 3.07663L10.616 3.07663L10.616 1.30063Z" fill="white"/>
<line x1="11.5" y1="206" x2="11.5" y2="105" stroke="white"/>
</svg>
